<?xml version="1.0" encoding="utf-8"?>
<!-- Generator: Adobe Illustrator 22.0.1, SVG Export Plug-In . SVG Version: 6.00 Build 0)  -->
<svg version="1.1" id="Слой_1" xmlns="http://www.w3.org/2000/svg" xmlns:xlink="http://www.w3.org/1999/xlink" x="0px" y="0px"
	 viewBox="0 0 104.939 105.2" style="enable-background:new 0 0 104.939 105.2;" xml:space="preserve">
<path style="fill:none;stroke:#611F2F;stroke-width:2;stroke-linecap:round;stroke-linejoin:round;stroke-miterlimit:10;" d="
	M9.782,55.825c0.111,1.439,0.443,2.878,1.107,4.206c3.431,7.526,10.403,16.933,10.403,16.933l0.332,0.553
	c0.332,0.443,0.885,0.553,1.328,0.332c0.553-0.221,0.664-0.885,0.332-1.439l-9.186-14.941c-0.996-1.66-0.443-3.984,1.328-5.091
	s4.095-0.553,5.091,1.107l9.518,12.285c0.664,0.775,1.771,1.992,2.656,2.545c8.633,6.198,9.739,12.395,10.514,15.605
	c0,0,0.111,0.664,0.111,1.771l0,0l0,0c0,0.885,0,1.881-0.111,2.988l-0.553,10.293c0,0.775-0.664,1.328-1.328,1.328l-16.048-0.111
	c-0.775,0-1.328-0.664-1.328-1.328l-0.332-8.522L8.233,75.968c-2.213-2.435-3.763-5.091-4.316-8.301l-0.111-0.996L1.15,40.884
	c-0.111-1.217,0.332-2.545,1.328-3.32c1.217-0.996,3.099-1.328,4.538,0.221c0.996,1.107,1.439,4.648,1.66,5.644
	c0.553,3.431,1.107,8.19,1.217,11.621C9.782,55.272,9.782,55.604,9.782,55.825z M15.094,52.726c0,0,0-0.111,0.111-0.111
	c-0.332-2.656-1.328-7.747-1.992-10.293c-0.332-1.328-1.107-2.213-2.435-2.656 M20.185,52.726c-0.221-1.771-1.439-5.202-1.881-6.751
	c-0.332-1.328-1.107-2.213-2.435-2.656 M97.878,37.785c-0.996,1.107-1.439,4.648-1.66,5.644c-0.553,3.431-1.107,8.19-1.217,11.621
	c0,0.221,0,0.553,0,0.775c-0.111,1.439-0.443,2.878-1.107,4.206c-3.431,7.526-10.403,16.933-10.403,16.933l-0.332,0.553
	c-0.332,0.443-0.885,0.553-1.328,0.332c-0.553-0.221-0.664-0.885-0.332-1.439l9.186-14.941c0.996-1.66,0.443-3.984-1.328-5.091
	s-4.095-0.553-5.091,1.107L74.748,69.77c-0.664,0.775-1.771,1.992-2.656,2.545c-8.633,6.198-9.739,12.395-10.514,15.605
	c0,0-0.111,0.664-0.111,1.771l0,0c0,0.885,0,1.881,0.111,2.988l0.553,10.293c0,0.775,0.664,1.328,1.328,1.328l16.048-0.111
	c0.775,0,1.328-0.664,1.328-1.328l0.332-8.522L96.44,75.967c2.213-2.435,3.763-5.091,4.316-8.301l0.111-0.996l2.767-25.787
	c0.111-1.217-0.332-2.545-1.328-3.431C101.198,36.568,99.317,36.236,97.878,37.785z M93.894,39.667
	c-1.328,0.443-2.103,1.439-2.435,2.656c-0.553,2.545-1.549,7.636-1.881,10.293c0,0,0.111,0,0,0 M89.024,43.208
	c-1.328,0.443-2.103,1.439-2.435,2.656c-0.553,1.771-1.66,5.202-1.881,6.862"/>
<path style="fill:none;stroke:#E4B15C;stroke-width:2;stroke-linecap:round;stroke-linejoin:round;stroke-miterlimit:10;" d="
	M60.379,32.135l-5.163-0.356l-1.958-4.807c-0.178-0.445-0.623-0.712-0.979-0.712c-0.445,0-0.801,0.267-0.979,0.712l-1.958,4.807
	l-5.163,0.356c-0.979,0.089-1.424,1.246-0.623,1.958l4.006,3.294l-1.246,4.985c-0.178,0.712,0.356,1.335,0.979,1.335
	c0.178,0,0.356-0.089,0.534-0.178l4.362-2.671l4.451,2.671c0.178,0.089,0.356,0.178,0.534,0.178c0.623,0,1.157-0.623,1.068-1.335
	l-1.246-5.074l4.006-3.294C61.803,33.381,61.358,32.135,60.379,32.135z"/>
<path style="fill:none;stroke:#E4B15C;stroke-width:2;stroke-linecap:round;stroke-linejoin:round;stroke-miterlimit:10;" d="
	M73.465,36.23c-0.89,0.979-0.979,2.315-0.356,3.472l0.623,0.979c0.89,1.513,0.178,3.561-1.424,4.184L71.24,45.31
	c-1.157,0.534-1.958,1.691-1.869,2.938l0.089,1.157c0.089,1.78-1.335,3.294-3.116,3.205l-1.157-0.089
	c-1.246-0.089-2.493,0.712-2.938,1.869l-0.445,1.068c-0.623,1.691-2.671,2.404-4.184,1.513l-1.068-0.534
	c-1.157-0.623-2.493-0.445-3.472,0.445l-0.89,0.801c-1.335,1.246-3.383,0.979-4.451-0.445l-0.712-0.979
	c-0.712-1.068-2.048-1.513-3.294-1.157l-1.157,0.356c-1.691,0.534-3.472-0.623-3.828-2.315l-0.178-1.157
	c-0.178-1.246-1.246-2.226-2.493-2.404l-1.157-0.178c-1.78-0.267-2.938-2.048-2.404-3.739l0.356-1.157
	c0.356-1.246-0.089-2.582-1.157-3.294l-0.979-0.623c-1.513-0.979-1.691-3.116-0.534-4.451l0.801-0.89
	c0.89-0.979,0.979-2.315,0.356-3.472L30.735,30.8c-0.89-1.513-0.178-3.561,1.424-4.184l1.068-0.445
	c1.157-0.534,1.958-1.691,1.869-2.938l-0.089-1.157c-0.089-1.78,1.335-3.294,3.116-3.205l1.157,0.089
	c1.246,0.089,2.493-0.712,2.938-1.869l0.445-1.068c0.623-1.691,2.671-2.404,4.184-1.513l1.068,0.534
	c1.157,0.623,2.493,0.445,3.472-0.445l0.89-0.801c1.335-1.246,3.383-0.979,4.451,0.445l0.712,0.979
	c0.712,1.068,2.048,1.513,3.294,1.157l1.157-0.356c1.691-0.534,3.472,0.623,3.828,2.315l0.178,1.157
	c0.178,1.246,1.246,2.226,2.493,2.404l1.157,0.178c1.78,0.267,2.938,2.048,2.404,3.739l-0.356,1.157
	c-0.356,1.246,0.089,2.582,1.157,3.294l0.979,0.623c1.513,0.979,1.691,3.116,0.534,4.451L73.465,36.23z"/>
</svg>
