<?xml version="1.0" encoding="utf-8"?>
<!-- Generator: Adobe Illustrator 22.0.1, SVG Export Plug-In . SVG Version: 6.00 Build 0)  -->
<svg version="1.1" id="Слой_1" xmlns="http://www.w3.org/2000/svg" xmlns:xlink="http://www.w3.org/1999/xlink" x="0px" y="0px"
	 viewBox="0 0 96.636 105.2" style="enable-background:new 0 0 96.636 105.2;" xml:space="preserve">
<title>calendar-contacts</title>
<path style="fill:none;stroke:#611F2F;stroke-width:2;stroke-miterlimit:10;" d="M22.417,14.674c0,2.385-1.933,4.318-4.318,4.318
	l0,0c-2.385,0-4.318-1.933-4.318-4.318V5.318C13.781,2.933,15.714,1,18.099,1l0,0c2.385,0,4.318,1.933,4.318,4.318V14.674z"/>
<path style="fill:none;stroke:#611F2F;stroke-width:2;stroke-miterlimit:10;" d="M52.643,14.674c0,2.385-1.933,4.318-4.318,4.318
	l0,0c-2.385,0-4.318-1.933-4.318-4.318V5.318C44.007,2.933,45.94,1,48.325,1l0,0c2.385,0,4.318,1.933,4.318,4.318V14.674z"/>
<path style="fill:none;stroke:#611F2F;stroke-width:2;stroke-miterlimit:10;" d="M82.869,14.674c0,2.385-1.933,4.318-4.318,4.318
	l0,0c-2.385,0-4.318-1.933-4.318-4.318V5.318C74.233,2.933,76.166,1,78.551,1l0,0c2.385,0,4.318,1.933,4.318,4.318V14.674z"/>
<path style="fill:none;stroke:#611F2F;stroke-width:2;stroke-miterlimit:10;" d="M13.781,9.564H6.757C3.578,9.564,1,12.142,1,15.321
	v83.121c0,3.18,2.578,5.757,5.757,5.757h83.121c3.18,0,5.757-2.578,5.757-5.757V15.321c0-3.18-2.578-5.757-5.757-5.757h-7.01"/>
<line style="fill:none;stroke:#611F2F;stroke-width:2;stroke-miterlimit:10;" x1="44.007" y1="9.564" x2="22.417" y2="9.564"/>
<line style="fill:none;stroke:#611F2F;stroke-width:2;stroke-miterlimit:10;" x1="74.233" y1="9.564" x2="52.643" y2="9.564"/>
<line style="fill:none;stroke:#611F2F;stroke-width:2;stroke-miterlimit:10;" x1="1" y1="29.096" x2="95.636" y2="29.096"/>
<g>
	<path style="fill:#E4B15C;" d="M16.026,70.95l4.899-4.608c1.465-1.377,2.471-2.506,3.019-3.39c0.776-1.271,1.165-2.718,1.165-4.342
		c0-1.165-0.238-2.118-0.715-2.86c-0.583-0.865-1.421-1.297-2.516-1.297c-1.289,0-2.118,0.415-2.489,1.245
		c-0.088,0.194-0.132,0.344-0.132,0.45c0,0.229,0.203,0.494,0.609,0.794c0.618,0.477,0.989,0.786,1.112,0.927
		c0.406,0.424,0.609,0.91,0.609,1.457c0,0.653-0.247,1.183-0.741,1.589c-0.495,0.406-1.077,0.609-1.748,0.609
		c-0.794,0-1.435-0.273-1.92-0.821c-0.486-0.547-0.728-1.227-0.728-2.039c0-0.988,0.379-1.897,1.139-2.727
		c0.653-0.724,1.483-1.289,2.489-1.695c0.848-0.335,1.854-0.503,3.019-0.503c1.095,0,2.057,0.132,2.886,0.397
		c1.183,0.389,2.127,0.962,2.833,1.721c0.776,0.865,1.165,1.88,1.165,3.045c0,1.148-0.434,2.207-1.301,3.178
		c-0.584,0.653-1.513,1.386-2.787,2.198c-0.69,0.441-1.504,0.989-2.442,1.642l-4.194,2.913h8.016c0.69,0,1.203-0.185,1.54-0.556
		c0.248-0.265,0.478-0.768,0.69-1.51h0.69l-0.265,5.958H16.026V70.95z"/>
	<path style="fill:#E4B15C;" d="M32.814,63.271c0-2.489,0.512-4.607,1.536-6.355c1.236-2.118,3.01-3.177,5.322-3.177
		c2.543,0,4.467,1.015,5.773,3.045c1.111,1.73,1.668,3.937,1.668,6.62c0,2.613-0.504,4.785-1.51,6.514
		c-1.236,2.136-3.063,3.204-5.48,3.204c-1.166,0-2.217-0.265-3.152-0.794c-1.465-0.83-2.551-2.136-3.256-3.919
		C33.114,66.907,32.814,65.195,32.814,63.271z M37.977,68.604c0,0.387,0.018,0.88,0.055,1.479c0.088,1.602,0.695,2.402,1.826,2.402
		c0.883,0,1.482-0.387,1.801-1.161c0.193-0.476,0.291-1.232,0.291-2.271V57.595c0-0.986-0.115-1.716-0.344-2.191
		c-0.336-0.686-0.945-1.03-1.828-1.03c-0.793,0-1.324,0.405-1.588,1.214c-0.143,0.44-0.213,1.18-0.213,2.218V68.604z"/>
	<path style="fill:#E4B15C;" d="M49.866,63.271c0-2.489,0.512-4.607,1.536-6.355c1.235-2.118,3.009-3.177,5.322-3.177
		c2.542,0,4.466,1.015,5.772,3.045c1.111,1.73,1.668,3.937,1.668,6.62c0,2.613-0.503,4.785-1.51,6.514
		c-1.235,2.136-3.063,3.204-5.48,3.204c-1.165,0-2.216-0.265-3.151-0.794c-1.466-0.83-2.551-2.136-3.257-3.919
		C50.166,66.907,49.866,65.195,49.866,63.271z M55.029,68.604c0,0.387,0.018,0.88,0.054,1.479c0.088,1.602,0.696,2.402,1.826,2.402
		c0.883,0,1.483-0.387,1.801-1.161c0.194-0.476,0.291-1.232,0.291-2.271V57.595c0-0.986-0.114-1.716-0.344-2.191
		c-0.336-0.686-0.944-1.03-1.827-1.03c-0.794,0-1.324,0.405-1.589,1.214c-0.142,0.44-0.212,1.18-0.212,2.218V68.604z"/>
	<path style="fill:#E4B15C;" d="M69.487,57.604l-0.186,4.74c1.077-1.2,2.719-1.8,4.926-1.8c1.959,0,3.552,0.587,4.779,1.761
		c1.227,1.174,1.84,2.732,1.84,4.673c0,1.448-0.477,2.692-1.43,3.734c-0.883,0.971-2.057,1.65-3.521,2.038
		c-0.883,0.247-1.916,0.371-3.099,0.371c-1.447,0-2.727-0.327-3.839-0.979c-1.342-0.795-2.013-1.862-2.013-3.204
		c0-0.812,0.252-1.483,0.755-2.013c0.503-0.53,1.16-0.794,1.973-0.794c0.636,0,1.2,0.194,1.694,0.58
		c0.494,0.387,0.741,0.888,0.741,1.503c0,0.598-0.194,1.099-0.582,1.503c-0.159,0.176-0.521,0.448-1.086,0.817
		c-0.389,0.246-0.582,0.475-0.582,0.686c0,0.229,0.189,0.497,0.569,0.805c0.379,0.308,1.01,0.461,1.893,0.461
		c2.242,0,3.363-1.423,3.363-4.269v-2.293c0-2.916-0.971-4.375-2.913-4.375c-1.482,0-2.657,0.627-3.521,1.88l-0.715-0.398
		l0.424-9.108c1.43,0.583,3.204,0.874,5.322,0.874c2.471,0,4.14-0.353,5.004-1.059H80c-0.283,0.83-0.574,1.492-0.874,1.986
		c-0.583,0.936-1.545,1.571-2.887,1.906c-0.83,0.212-2.012,0.318-3.548,0.318C71.773,57.948,70.705,57.833,69.487,57.604z"/>
</g>
</svg>
