<?xml version="1.0" encoding="utf-8"?>
<!-- Generator: Adobe Illustrator 22.0.1, SVG Export Plug-In . SVG Version: 6.00 Build 0)  -->
<svg version="1.1" id="Слой_1" xmlns="http://www.w3.org/2000/svg" xmlns:xlink="http://www.w3.org/1999/xlink" x="0px" y="0px"
	 viewBox="0 0 101.136 105.2" style="enable-background:new 0 0 101.136 105.2;" xml:space="preserve">
<g transform="translate(0,-952.36218)">
	<path style="fill:none;stroke:#611F2F;stroke-width:2;stroke-linecap:round;stroke-linejoin:round;stroke-miterlimit:10;" d="
		M60.401,989.62h24.02l15.474,15.479v6.266 M73.324,1030.695H60.401 M99.894,1021.03v9.665h-7.552 M20.305,1030.695h-7.246v-24.993
		 M41.214,977.538h18.946v53.156H39.316 M72.142,998.076h9.186l10.114,10.116v1.764H72.142V998.076z M29.967,1023.446
		c5.365,0,9.662,4.299,9.662,9.665s-4.297,9.665-9.662,9.665s-9.662-4.299-9.662-9.665
		C20.305,1027.745,24.603,1023.446,29.967,1023.446z M82.986,1023.446c5.365,0,9.662,4.299,9.662,9.665s-4.297,9.665-9.662,9.665
		c-5.365,0-9.662-4.299-9.662-9.665C73.324,1027.745,77.621,1023.446,82.986,1023.446z M29.967,1029.487
		c-2.001,0-3.623,1.622-3.623,3.624c0,2.002,1.622,3.624,3.623,3.624s3.623-1.622,3.623-3.624
		C33.591,1031.109,31.969,1029.487,29.967,1029.487z M82.986,1029.487c-2.001,0-3.623,1.622-3.623,3.624
		c0,2.002,1.622,3.624,3.623,3.624c2.001,0,3.623-1.622,3.623-3.624C86.609,1031.109,84.987,1029.487,82.986,1029.487z"/>
</g>
<path style="fill:none;stroke:#E4B15C;stroke-width:2;stroke-linecap:round;stroke-linejoin:round;stroke-miterlimit:10;" d="
	M21.513,13.247C29.601,14.32,35.99,20.71,37.063,28.8h-1.057c-0.075-0.004-0.151-0.004-0.227,0c-1.334,0.062-2.365,1.195-2.303,2.53
	c0.062,1.334,1.194,2.366,2.529,2.303c0,0,0,0,0.001,0h1.057c-1.073,8.09-7.462,14.481-15.549,15.554V48.13
	c0.029-1.334-1.03-2.439-2.363-2.467c-0.105-0.002-0.212,0.003-0.316,0.014c-1.244,0.136-2.179,1.202-2.151,2.454v1.057
	c-8.088-1.074-14.477-7.464-15.55-15.555H2.19c1.334,0.019,2.431-1.047,2.45-2.382c0.019-1.334-1.047-2.432-2.381-2.451
	c-0.023,0-0.045,0-0.069,0H1.133c1.073-8.09,7.462-14.48,15.549-15.554v1.057c-0.019,1.334,1.047,2.432,2.381,2.451
	c1.334,0.019,2.431-1.047,2.45-2.382"/>
<path style="fill:none;stroke:#E4B15C;stroke-width:2;stroke-linecap:round;stroke-linejoin:round;stroke-miterlimit:10;" d="
	M23.165,36.07c-0.022-0.023-0.044-0.045-0.067-0.067l-4.113-4.115v-6.229"/>
</svg>
