<?xml version="1.0" encoding="utf-8"?>
<!-- Generator: Adobe Illustrator 22.0.1, SVG Export Plug-In . SVG Version: 6.00 Build 0)  -->
<svg version="1.1" id="Слой_1" xmlns="http://www.w3.org/2000/svg" xmlns:xlink="http://www.w3.org/1999/xlink" x="0px" y="0px"
	 viewBox="0 0 154 79.497" style="enable-background:new 0 0 154 79.497;" xml:space="preserve">
<g transform="translate(0,-952.36216)">
	<path style="fill:none;stroke:#611F2F;stroke-width:2;stroke-linecap:round;stroke-linejoin:round;stroke-miterlimit:10;" d="
		M5.509,953.362v0.007c-0.468,0.002-0.895,0.268-1.105,0.686l-3.272,6.544c-0.307,0.614-0.058,1.361,0.556,1.667
		c0.077,0.039,0.158,0.069,0.242,0.091l5.086,1.329l0.821,3.074c0.111,0.42,0.434,0.752,0.851,0.874l4.113,1.207l3.886,2.428
		c0.197,0.123,0.424,0.188,0.656,0.188h3.44l1.89,2.316c0.236,0.289,0.59,0.456,0.963,0.455h1.58l2.655,4.202
		c0.139,0.222,0.345,0.394,0.587,0.492l4.489,1.794l2.843,9.002c0.016,0.051,0.034,0.1,0.056,0.148l3.002,6.508l3.094,8.091
		l-2.467,6.957l-2.899,1.785c-0.402,0.247-0.63,0.701-0.587,1.171l0.254,2.768c0.044,0.492,0.375,0.912,0.844,1.069l6.04,2.012
		c0.357,0.119,0.749,0.069,1.065-0.135l3.114-1.999l10.846,1.926c0.447,0.08,0.903-0.091,1.188-0.445l2.675-3.341l3.648-0.191
		l6.907,7.369l0.689,3.668c0.097,0.519,0.511,0.919,1.032,1l13.089,2.015c0.147,0.021,0.297,0.015,0.442-0.016l26.428-5.538
		c0.237-0.049,0.455-0.166,0.627-0.336l5.466-5.469l8.827,3.447l0.201,2.989c0.036,0.528,0.403,0.976,0.914,1.115l15.86,4.278
		c0.079,0.022,0.159,0.037,0.241,0.043l3.774,0.251c0.596,0.04,1.136-0.349,1.286-0.927l1.511-5.789
		c0.118-0.453-0.029-0.933-0.379-1.244l-6.422-5.684l-2.932-4.397c-0.153-0.229-0.378-0.401-0.64-0.488l-1.547-0.515l-0.274-1.775
		l4.928-3.582c0.437-0.319,0.617-0.885,0.445-1.399l-0.501-1.511c-0.112-0.334-0.36-0.605-0.683-0.745l-16.876-7.366l0.452-1.577
		h1.075c0.686,0,1.243-0.556,1.244-1.242c0,0,0-0.001,0-0.001v-5.288c-0.001-0.634-0.478-1.165-1.108-1.234l-8.656-0.937
		l-2.461-4.697c-0.154-0.295-0.42-0.516-0.739-0.614l-5.789-1.761c-0.524-0.16-1.091,0.043-1.395,0.498l-1.874,2.81l-0.782-1.451
		c-0.225-0.418-0.667-0.671-1.141-0.653l-6.544,0.254c-0.182,0.008-0.36,0.055-0.521,0.139l-6.977,3.605l-5.753-0.538l0.778-1.339
		c0.346-0.593,0.145-1.354-0.448-1.7c-0.003-0.002-0.007-0.004-0.01-0.006l-11.05-6.281l-4.74-2.992l-6.274-4.268
		c-0.23-0.156-0.505-0.23-0.782-0.211l-3.44,0.228l-3.724-1.86c-0.231-0.117-0.493-0.158-0.749-0.119l-7.927,1.24l-9.662-0.485
		l-9.569-5.152c-0.042-0.022-0.085-0.042-0.129-0.059l-11.324-4.529c-0.224-0.09-0.469-0.113-0.706-0.066l-3.47,0.696l-8.009-2.428
		C5.756,953.381,5.633,953.362,5.509,953.362z"/>
</g>
<path style="fill:none;stroke:#E4B15C;stroke-width:2;stroke-linecap:round;stroke-linejoin:round;stroke-miterlimit:10;" d="
	M93.314,45.091c-0.139-0.484-0.341-0.955-0.622-1.404c-1.248-1.973-3.614-2.967-5.899-2.466c-1.965,0.427-3.524,1.944-4.103,3.835
	c-0.579-1.891-2.138-3.407-4.103-3.835c-2.285-0.5-4.651,0.493-5.894,2.466c-0.285,0.449-0.488,0.92-0.626,1.404
	c-0.242,1.054-0.225,2.159-0.005,3.226c0.177,0.722,0.466,1.421,0.833,2.073c1.217,2.159,3.209,3.775,5.092,5.329
	c0.004,0.004,0.009,0.009,0.013,0.009c0.812,0.669,1.663,1.287,2.544,1.862c0.722,0.471,1.438,0.937,2.146,1.425
	c0.704-0.488,1.425-0.958,2.146-1.425c0.881-0.574,1.732-1.196,2.544-1.862c0.005-0.004,0.009-0.009,0.013-0.009
	c1.883-1.55,3.874-3.17,5.092-5.329c0.367-0.652,0.652-1.351,0.833-2.073C93.534,47.246,93.551,46.141,93.314,45.091z"/>
</svg>
