<?xml version="1.0" encoding="utf-8"?>
<!-- Generator: Adobe Illustrator 22.0.1, SVG Export Plug-In . SVG Version: 6.00 Build 0)  -->
<svg version="1.1" id="Слой_1" xmlns="http://www.w3.org/2000/svg" xmlns:xlink="http://www.w3.org/1999/xlink" x="0px" y="0px"
	 viewBox="0 0 102.274 104.621" style="enable-background:new 0 0 102.274 104.621;" xml:space="preserve">
<title>check</title>
<path style="fill:#E4B15C;" d="M49.756,70.713c-5.418-0.12-9.98-2.291-13.825-6.179c-0.556-0.533-0.982-1.188-1.243-1.913
	c-1.387-4.175-2.568-8.431-1.258-12.821c1.98-6.628,5.433-12.013,12.467-13.959c2.91-0.791,6-0.599,8.79,0.545
	c3.511,1.417,6.648,3.625,9.167,6.451c5.007,5.37,4.677,12.768,1.267,19.181c-2.908,5.466-6.743,6.662-12.615,8.46
	C51.617,70.751,50.703,70.656,49.756,70.713z M50.756,38.371c-5.552-0.033-9.182,2.329-12.113,5.6
	c-3.721,4.175-3.429,8.005-3.084,13.39c0.139,2.152,1.688,6.04,3.582,7.173c4.682,2.869,8.809,5.193,14.433,3.276
	c4.409-1.506,8.221-3.668,10.425-7.981c1.234-2.391,3.003-9.756-0.579-15.179C59.875,40.174,55.237,38.711,50.756,38.371z"/>
<path style="fill:#E4B15C;" d="M48.742,61.469c-0.678-0.294-1.295-0.715-1.817-1.239c-1.213-1.283-2.503-2.49-3.864-3.615
	c-0.378-0.292-0.736-0.598-1.114-0.88c-0.341-0.201-0.455-0.641-0.253-0.982c0.018-0.031,0.039-0.061,0.062-0.089
	c0.296-0.478,0.665-0.115,0.875,0.038c1.784,1.296,3.792,2.267,5.409,3.787c0.426,0.402,0.516,0.263,0.784-0.143
	c1.592-2.42,3.223-4.811,4.849-7.202c1.253-1.865,3.099-3.142,4.6-4.782c0.115-0.12,0.244-0.33,0.478-0.139
	c0.196,0.178,0.243,0.467,0.115,0.698c-0.307,0.655-0.661,1.286-1.062,1.889c-1.616,2.286-3.276,4.505-4.859,6.786
	c-1.181,1.712-2.468,3.348-3.348,5.26C49.412,61.264,49.053,61.311,48.742,61.469z"/>
<g>
	<path style="fill:#6D2335;" d="M3.749,40.571c-1.544-0.532-2.616-1.267-3.217-2.203c-0.601-0.938-0.692-2.011-0.276-3.22
		c0.227-0.653,0.534-1.178,0.929-1.576c0.393-0.398,0.854-0.681,1.38-0.85c0.527-0.169,1.11-0.227,1.748-0.175
		C4.952,32.6,5.633,32.75,6.356,33c1.545,0.532,2.616,1.269,3.215,2.21c0.599,0.942,0.688,2.021,0.269,3.239
		c-0.222,0.644-0.528,1.163-0.921,1.556c-0.393,0.393-0.851,0.674-1.379,0.843c-0.526,0.169-1.109,0.227-1.748,0.175
		C5.153,40.971,4.473,40.82,3.749,40.571z M4.15,39.406c0.512,0.176,1.015,0.292,1.508,0.349c0.494,0.057,0.952,0.039,1.374-0.053
		c0.421-0.091,0.792-0.267,1.114-0.527c0.321-0.26,0.56-0.614,0.714-1.065c0.283-0.82,0.194-1.572-0.268-2.253
		c-0.461-0.682-1.34-1.247-2.637-1.693c-0.504-0.173-1.004-0.289-1.503-0.346c-0.498-0.058-0.958-0.04-1.381,0.057
		c-0.423,0.097-0.796,0.274-1.117,0.533c-0.321,0.26-0.562,0.619-0.719,1.078c-0.28,0.812-0.188,1.557,0.274,2.234
		S2.853,38.96,4.15,39.406z"/>
	<path style="fill:#6D2335;" d="M3.353,28.375c0.105-0.349,0.249-0.708,0.432-1.077c0.182-0.369,0.374-0.728,0.576-1.074
		c0.214-0.371,0.471-0.727,0.766-1.068c0.295-0.341,0.632-0.613,1.008-0.815c0.378-0.202,0.793-0.303,1.246-0.304
		c0.454,0,0.942,0.151,1.467,0.456c0.518,0.301,0.898,0.647,1.146,1.039c0.248,0.392,0.393,0.805,0.437,1.241
		c0.044,0.436-0.001,0.88-0.134,1.331c-0.133,0.452-0.321,0.888-0.564,1.307c-0.023,0.041-0.063,0.107-0.116,0.2
		c-0.055,0.093-0.113,0.188-0.176,0.287c-0.062,0.099-0.126,0.194-0.19,0.287c-0.063,0.092-0.112,0.156-0.144,0.191l3.22,1.871
		l-0.584,1.005L3.353,28.375z M5.246,26.706c-0.122,0.21-0.235,0.414-0.34,0.612c-0.104,0.198-0.173,0.363-0.207,0.495l3.511,2.041
		c0.04-0.03,0.088-0.089,0.143-0.177c0.056-0.085,0.113-0.176,0.174-0.271s0.117-0.186,0.168-0.275
		c0.052-0.089,0.089-0.153,0.112-0.193c0.159-0.274,0.292-0.562,0.396-0.863c0.105-0.301,0.152-0.6,0.142-0.898
		s-0.103-0.585-0.275-0.864c-0.173-0.278-0.453-0.53-0.84-0.755c-0.331-0.192-0.644-0.29-0.938-0.294
		c-0.295-0.004-0.568,0.058-0.82,0.187c-0.253,0.128-0.483,0.305-0.69,0.53C5.574,26.206,5.395,26.448,5.246,26.706z"/>
	<path style="fill:#6D2335;" d="M14.514,18.039l-0.786-0.803l-0.036,0.042l0.465,1.21l1.839,7.917l-0.453,0.515l-7.36-6.47
		l0.767-0.873l5.048,4.436l0.766,0.804l0.038-0.042l-0.456-1.221l-1.893-7.963l0.453-0.515l7.361,6.469l-0.768,0.873L14.514,18.039z
		"/>
	<path style="fill:#6D2335;" d="M20.399,10.18l-3.19,2.556l5.479,6.84l-0.906,0.727l-6.127-7.649l4.098-3.282L20.399,10.18z"/>
	<path style="fill:#6D2335;" d="M28.396,7.999l-0.463-1.022l-0.05,0.027l0.023,1.296l-0.979,8.069l-0.602,0.329l-4.705-8.597
		l1.019-0.558l3.227,5.895l0.445,1.017l0.049-0.026l-0.011-1.303l0.945-8.13l0.602-0.33l4.705,8.597l-1.02,0.557L28.396,7.999z"/>
	<path style="fill:#6D2335;" d="M38.686,6.551l-4.507,1.347l1.287,4.306l-1.113,0.333l-2.806-9.389l1.112-0.333l1.223,4.091
		l4.508-1.347l-1.223-4.091l1.112-0.333l2.808,9.39l-1.114,0.333L38.686,6.551z"/>
	<path style="fill:#6D2335;" d="M47.362,7.076l-3.578,0.336l-0.718,2.795l-1.156,0.109l2.763-10.258l0.529-0.049l4.64,9.562
		l-1.228,0.115L47.362,7.076z M44.064,6.374l2.856-0.269l-1.36-2.867l-0.486-1.445L45.06,1.794l-0.205,1.538L44.064,6.374z"/>
	<path style="fill:#6D2335;" d="M56.61,1.408l-2.913-0.274c-0.269,1.85-0.536,3.384-0.806,4.6c-0.269,1.217-0.589,2.155-0.961,2.814
		c-0.246,0.426-0.519,0.729-0.816,0.907c-0.298,0.178-0.609,0.252-0.935,0.222c-0.167-0.016-0.31-0.042-0.429-0.076
		c-0.119-0.035-0.231-0.081-0.339-0.138l0.248-0.988c0.09,0.036,0.187,0.06,0.289,0.069c0.157,0.015,0.318-0.021,0.48-0.109
		c0.163-0.088,0.332-0.264,0.507-0.529c0.153-0.239,0.309-0.562,0.464-0.969c0.155-0.408,0.308-0.928,0.456-1.561
		c0.148-0.633,0.292-1.391,0.432-2.273C52.426,2.222,52.566,1.188,52.706,0l5.158,0.485l-0.918,9.756l-1.156-0.108L56.61,1.408z"/>
	<path style="fill:#6D2335;" d="M61.546,1.221l1.119,0.316l-1.037,3.664c0.047,0.003,0.127,0.014,0.238,0.031
		c0.111,0.018,0.231,0.039,0.359,0.065c0.128,0.027,0.261,0.055,0.398,0.084c0.137,0.03,0.26,0.059,0.367,0.089
		c0.432,0.122,0.839,0.284,1.224,0.485c0.384,0.201,0.706,0.455,0.963,0.761c0.259,0.305,0.435,0.668,0.529,1.087
		c0.093,0.419,0.062,0.908-0.095,1.465c-0.152,0.538-0.379,0.979-0.68,1.32c-0.302,0.342-0.654,0.596-1.061,0.762
		c-0.405,0.167-0.849,0.25-1.329,0.25c-0.48,0-0.979-0.074-1.501-0.221c-0.125-0.036-0.278-0.082-0.456-0.137
		c-0.179-0.055-0.366-0.118-0.564-0.188s-0.395-0.148-0.589-0.232c-0.195-0.084-0.371-0.173-0.529-0.267L61.546,1.221z
		 M61.465,10.452c0.323,0.091,0.639,0.135,0.945,0.129c0.307-0.005,0.593-0.064,0.858-0.179c0.266-0.114,0.495-0.286,0.692-0.517
		c0.196-0.23,0.343-0.521,0.442-0.871c0.107-0.377,0.129-0.71,0.065-1s-0.184-0.54-0.362-0.75c-0.179-0.211-0.403-0.386-0.674-0.525
		c-0.271-0.14-0.559-0.253-0.863-0.339c-0.081-0.023-0.182-0.046-0.301-0.07c-0.119-0.024-0.238-0.048-0.358-0.072
		c-0.119-0.024-0.23-0.042-0.335-0.051c-0.104-0.01-0.179-0.017-0.227-0.021l-1.087,3.839c0.118,0.062,0.292,0.134,0.521,0.213
		C61.012,10.316,61.24,10.388,61.465,10.452z"/>
	<path style="fill:#6D2335;" d="M73.165,11.38l-4.2-2.12l-2.024,4.012l-1.038-0.523L70.318,4l1.037,0.523l-1.924,3.812l4.199,2.12
		l1.924-3.812l1.038,0.523l-4.416,8.749l-1.037-0.524L73.165,11.38z"/>
	<path style="fill:#6D2335;" d="M80.023,9.325l0.894,0.743l-2.433,2.929c0.042,0.022,0.103,0.058,0.184,0.107s0.167,0.106,0.26,0.17
		s0.186,0.129,0.281,0.197c0.096,0.068,0.187,0.137,0.273,0.209c0.337,0.28,0.638,0.587,0.9,0.92s0.444,0.688,0.546,1.063
		c0.101,0.375,0.104,0.77,0.01,1.182c-0.094,0.413-0.326,0.843-0.696,1.288c-0.356,0.431-0.737,0.75-1.14,0.956
		c-0.4,0.206-0.811,0.308-1.228,0.308c-0.418-0.001-0.842-0.094-1.27-0.28c-0.429-0.187-0.85-0.452-1.267-0.797
		c-0.101-0.083-0.216-0.182-0.346-0.296s-0.264-0.237-0.402-0.37c-0.139-0.133-0.274-0.273-0.407-0.42
		c-0.132-0.146-0.252-0.295-0.359-0.444L80.023,9.325z M76.058,17.605c0.517,0.43,1.06,0.644,1.63,0.645
		c0.57,0,1.088-0.28,1.553-0.84c0.251-0.302,0.408-0.595,0.476-0.879c0.066-0.285,0.063-0.557-0.006-0.815
		c-0.071-0.258-0.196-0.502-0.376-0.731c-0.181-0.228-0.393-0.444-0.637-0.646c-0.13-0.107-0.282-0.216-0.458-0.326
		c-0.175-0.109-0.312-0.187-0.409-0.23l-2.549,3.07C75.44,17.057,75.699,17.308,76.058,17.605z M85.581,13.939l0.894,0.743
		l-6.261,7.539l-0.895-0.743L85.581,13.939z"/>
	<path style="fill:#6D2335;" d="M90.384,24.38l0.941-0.612l-0.034-0.044l-1.277,0.217l-8.124,0.243l-0.415-0.545l7.792-5.942
		l0.704,0.924l-5.343,4.075l-0.939,0.592l0.034,0.045l1.286-0.206l8.18-0.286l0.416,0.545l-7.793,5.942l-0.705-0.925L90.384,24.38z
		 M92.62,18.168c-0.252,0.239-0.384,0.505-0.396,0.796c-0.013,0.291,0.094,0.584,0.321,0.882c0.226,0.296,0.479,0.476,0.761,0.537
		c0.281,0.062,0.57,0.009,0.865-0.158l0.422,0.945c-0.463,0.224-0.924,0.278-1.38,0.164c-0.458-0.115-0.896-0.447-1.315-0.997
		c-0.401-0.527-0.628-1.037-0.682-1.53c-0.054-0.493,0.12-0.939,0.52-1.338L92.62,18.168z"/>
	<path style="fill:#6D2335;" d="M98.726,36.344l-1.15-2.827l-8.117,3.304l-0.438-1.077l8.118-3.303l-1.15-2.827l0.96-0.39
		l2.738,6.73L98.726,36.344z"/>
	<path style="fill:#6D2335;" d="M95.423,38.584c1.599-0.338,2.896-0.259,3.893,0.237c0.997,0.496,1.627,1.369,1.892,2.62
		c0.142,0.675,0.147,1.285,0.014,1.829c-0.134,0.543-0.383,1.022-0.747,1.438c-0.366,0.416-0.836,0.765-1.41,1.049
		s-1.236,0.504-1.985,0.663c-1.599,0.337-2.896,0.256-3.894-0.244c-0.997-0.5-1.629-1.38-1.896-2.641
		c-0.141-0.667-0.144-1.269-0.009-1.808c0.134-0.539,0.383-1.017,0.748-1.432c0.366-0.417,0.836-0.766,1.411-1.049
		C94.013,38.963,94.674,38.742,95.423,38.584z M95.677,39.789c-0.529,0.112-1.021,0.271-1.474,0.476
		c-0.452,0.206-0.835,0.456-1.149,0.751c-0.315,0.295-0.544,0.637-0.686,1.025c-0.143,0.387-0.165,0.814-0.066,1.28
		c0.181,0.849,0.643,1.448,1.388,1.796c0.747,0.348,1.791,0.38,3.133,0.096c0.521-0.11,1.01-0.268,1.467-0.474
		c0.458-0.206,0.843-0.459,1.156-0.759c0.314-0.299,0.541-0.644,0.684-1.031s0.164-0.819,0.063-1.294
		c-0.177-0.84-0.638-1.431-1.382-1.774C98.064,39.536,97.02,39.506,95.677,39.789z"/>
	<path style="fill:#6D2335;" d="M99.952,54.774c-0.233,0.002-0.472-0.033-0.715-0.105s-0.471-0.183-0.683-0.33
		s-0.397-0.338-0.559-0.568c-0.161-0.232-0.284-0.506-0.371-0.822h-0.056c-0.045,0.28-0.121,0.549-0.23,0.807
		c-0.11,0.259-0.262,0.486-0.455,0.684c-0.195,0.198-0.432,0.359-0.71,0.483c-0.279,0.123-0.61,0.187-0.993,0.19
		c-0.503,0.005-0.94-0.096-1.312-0.303c-0.371-0.206-0.674-0.479-0.911-0.816c-0.236-0.34-0.412-0.727-0.527-1.164
		c-0.117-0.438-0.178-0.886-0.182-1.344c-0.001-0.158-0.003-0.345-0.005-0.559c-0.003-0.216,0.003-0.439,0.015-0.673
		c0.012-0.234,0.028-0.467,0.049-0.701c0.021-0.234,0.055-0.44,0.1-0.617l9.646-0.09c0.059,0.344,0.108,0.745,0.15,1.202
		c0.041,0.457,0.065,0.956,0.07,1.497c0.003,0.364-0.023,0.735-0.081,1.114c-0.057,0.378-0.171,0.723-0.34,1.032
		c-0.171,0.31-0.407,0.566-0.714,0.77C100.834,54.665,100.436,54.77,99.952,54.774z M93.257,51.589
		c0.003,0.298,0.041,0.588,0.113,0.867c0.072,0.278,0.187,0.525,0.344,0.738c0.155,0.213,0.346,0.382,0.571,0.506
		c0.225,0.123,0.491,0.185,0.8,0.182c0.383-0.004,0.689-0.084,0.922-0.24c0.231-0.156,0.411-0.359,0.54-0.607
		c0.128-0.248,0.215-0.526,0.258-0.835c0.045-0.309,0.064-0.617,0.063-0.925l-0.012-1.218l-3.515,0.033
		c-0.018,0.065-0.03,0.159-0.039,0.28c-0.009,0.121-0.017,0.252-0.024,0.393c-0.008,0.14-0.014,0.284-0.018,0.434
		C93.257,51.346,93.257,51.477,93.257,51.589z M97.842,50.775c0.001,0.159,0.008,0.351,0.019,0.574
		c0.012,0.224,0.028,0.41,0.048,0.56c0.077,0.223,0.17,0.433,0.279,0.627c0.108,0.195,0.236,0.369,0.383,0.521
		c0.146,0.152,0.315,0.272,0.508,0.359c0.191,0.088,0.4,0.13,0.624,0.127c0.308-0.003,0.561-0.063,0.761-0.182
		c0.199-0.119,0.359-0.277,0.479-0.474c0.119-0.197,0.203-0.422,0.253-0.675c0.049-0.252,0.072-0.509,0.07-0.77
		c-0.003-0.309-0.014-0.592-0.029-0.848c-0.017-0.257-0.039-0.45-0.068-0.58l-3.332,0.031L97.842,50.775z"/>
	<path style="fill:#6D2335;" d="M94.108,61.722l0.618-3.54l-2.509-1.427l0.2-1.145l9.169,5.364l-0.092,0.524l-10.446,1.959
		l0.212-1.215L94.108,61.722z M95.655,58.726l-0.493,2.827l3.124-0.559l1.521-0.088l0.002-0.015l-1.43-0.603L95.655,58.726z"/>
	<path style="fill:#6D2335;" d="M99.828,67.609c-0.042,0.362-0.119,0.741-0.233,1.138c-0.114,0.395-0.24,0.781-0.378,1.158
		c-0.146,0.402-0.335,0.799-0.565,1.187c-0.231,0.388-0.514,0.715-0.849,0.979c-0.335,0.267-0.726,0.439-1.172,0.521
		s-0.955,0.018-1.525-0.19c-0.562-0.204-0.998-0.478-1.311-0.819c-0.313-0.343-0.528-0.724-0.648-1.145
		c-0.12-0.422-0.154-0.866-0.104-1.334s0.159-0.931,0.326-1.387c0.016-0.044,0.041-0.116,0.079-0.216
		c0.036-0.102,0.076-0.207,0.121-0.314c0.044-0.108,0.09-0.213,0.137-0.314c0.048-0.103,0.083-0.174,0.107-0.215l-3.499-1.273
		l0.397-1.092L99.828,67.609z M98.26,69.587c0.082-0.229,0.158-0.449,0.226-0.663c0.068-0.214,0.106-0.388,0.116-0.523l-3.815-1.389
		c-0.034,0.037-0.07,0.104-0.109,0.198c-0.04,0.096-0.081,0.194-0.123,0.299c-0.043,0.104-0.081,0.203-0.116,0.299
		c-0.036,0.098-0.061,0.168-0.077,0.211c-0.108,0.299-0.188,0.604-0.237,0.92c-0.05,0.314-0.043,0.617,0.02,0.908
		s0.203,0.559,0.423,0.802c0.22,0.244,0.539,0.442,0.96,0.596c0.359,0.13,0.686,0.171,0.976,0.124
		c0.291-0.049,0.55-0.158,0.775-0.329s0.421-0.386,0.585-0.645C98.025,70.136,98.159,69.867,98.26,69.587z"/>
	<path style="fill:#6D2335;" d="M87.2,80.78c-0.196,0.257-0.454,0.457-0.776,0.603c-0.321,0.146-0.657,0.192-1.009,0.142
		c-0.352-0.052-0.66-0.179-0.926-0.381c-0.426-0.326-0.675-0.754-0.745-1.284s0.056-1.006,0.38-1.43
		c0.325-0.426,0.754-0.675,1.283-0.745s1.007,0.057,1.433,0.383c0.268,0.204,0.473,0.469,0.613,0.794s0.183,0.661,0.126,1.01
		C87.523,80.219,87.396,80.522,87.2,80.78z"/>
	<path style="fill:#6D2335;" d="M72.715,98.21l3.955-2.191l-4.249-7.666l1.017-0.563l4.75,8.571L72.2,99.68l-4.749-8.571
		l1.016-0.564L72.715,98.21z"/>
	<path style="fill:#6D2335;" d="M68.658,101.048c-0.311,0.191-0.657,0.363-1.039,0.518s-0.763,0.294-1.144,0.419
		c-0.409,0.133-0.836,0.229-1.284,0.287c-0.447,0.059-0.878,0.038-1.295-0.062c-0.415-0.1-0.792-0.301-1.132-0.602
		c-0.339-0.301-0.604-0.74-0.792-1.317c-0.186-0.567-0.241-1.079-0.165-1.536c0.076-0.458,0.243-0.863,0.5-1.217
		c0.257-0.355,0.586-0.656,0.985-0.906c0.4-0.248,0.831-0.447,1.291-0.6c0.045-0.014,0.118-0.037,0.221-0.071
		c0.102-0.034,0.208-0.066,0.321-0.098c0.112-0.032,0.223-0.062,0.332-0.087c0.109-0.026,0.188-0.042,0.235-0.047l-1.159-3.54
		l1.104-0.361L68.658,101.048z M66.134,101.034c0.231-0.074,0.451-0.152,0.661-0.23c0.21-0.079,0.371-0.156,0.484-0.232
		l-1.265-3.858c-0.05-0.003-0.125,0.009-0.224,0.037c-0.1,0.026-0.203,0.057-0.311,0.087c-0.108,0.03-0.211,0.062-0.308,0.094
		c-0.099,0.031-0.169,0.055-0.214,0.069c-0.302,0.099-0.592,0.226-0.869,0.381c-0.278,0.155-0.513,0.347-0.702,0.576
		c-0.19,0.229-0.313,0.505-0.37,0.828c-0.057,0.322-0.015,0.697,0.125,1.123c0.118,0.364,0.287,0.645,0.505,0.845
		c0.217,0.197,0.463,0.334,0.737,0.406c0.273,0.072,0.563,0.092,0.867,0.062C65.556,101.19,65.85,101.128,66.134,101.034z"/>
	<path style="fill:#6D2335;" d="M59.858,98.785c0.208,1.62,0.025,2.907-0.55,3.86c-0.573,0.953-1.495,1.512-2.763,1.674
		c-0.685,0.089-1.293,0.045-1.823-0.132c-0.532-0.177-0.99-0.464-1.374-0.86c-0.386-0.398-0.696-0.895-0.933-1.49
		c-0.237-0.596-0.403-1.273-0.501-2.032c-0.208-1.62-0.021-2.907,0.556-3.861c0.579-0.954,1.508-1.513,2.785-1.677
		c0.676-0.086,1.277-0.041,1.803,0.136c0.526,0.177,0.982,0.464,1.366,0.862c0.386,0.396,0.696,0.894,0.933,1.489
		C59.593,97.349,59.76,98.026,59.858,98.785z M58.636,98.942c-0.069-0.537-0.188-1.039-0.356-1.507
		c-0.168-0.468-0.387-0.87-0.655-1.208c-0.27-0.336-0.591-0.592-0.967-0.765c-0.375-0.173-0.799-0.229-1.271-0.168
		c-0.861,0.11-1.494,0.523-1.902,1.238c-0.406,0.716-0.522,1.755-0.348,3.115c0.068,0.527,0.187,1.027,0.355,1.5
		c0.168,0.472,0.39,0.876,0.663,1.213c0.274,0.337,0.598,0.592,0.974,0.765c0.375,0.172,0.803,0.229,1.284,0.166
		c0.852-0.108,1.479-0.521,1.881-1.236C58.697,101.342,58.81,100.304,58.636,98.942z"/>
	<path style="fill:#6D2335;" d="M43.321,101.993c0.017-0.232,0.07-0.468,0.163-0.703c0.092-0.237,0.22-0.455,0.383-0.654
		c0.164-0.198,0.369-0.369,0.613-0.51c0.244-0.143,0.526-0.243,0.85-0.305l0.004-0.055c-0.275-0.067-0.537-0.166-0.786-0.296
		c-0.248-0.13-0.462-0.3-0.645-0.509c-0.181-0.21-0.322-0.459-0.423-0.747s-0.138-0.622-0.11-1.005
		c0.036-0.502,0.173-0.93,0.408-1.282s0.531-0.634,0.889-0.841c0.356-0.209,0.757-0.354,1.202-0.434
		c0.446-0.08,0.897-0.104,1.353-0.071c0.159,0.011,0.345,0.024,0.559,0.04c0.215,0.016,0.438,0.038,0.669,0.068
		c0.232,0.031,0.464,0.066,0.694,0.106c0.231,0.04,0.434,0.09,0.607,0.148l-0.691,9.622c-0.349,0.031-0.752,0.049-1.211,0.053
		c-0.458,0.004-0.958-0.013-1.498-0.051c-0.363-0.026-0.73-0.083-1.103-0.171c-0.373-0.087-0.708-0.229-1.002-0.423
		c-0.296-0.194-0.532-0.452-0.71-0.773C43.358,102.88,43.287,102.478,43.321,101.993z M47.477,100.215
		c-0.158-0.011-0.35-0.021-0.573-0.027c-0.225-0.007-0.411-0.007-0.562,0.002c-0.229,0.058-0.445,0.134-0.648,0.227
		s-0.387,0.206-0.551,0.34c-0.164,0.133-0.297,0.292-0.399,0.477c-0.102,0.185-0.16,0.389-0.177,0.612
		c-0.021,0.307,0.019,0.564,0.119,0.773c0.103,0.209,0.247,0.38,0.434,0.516c0.188,0.135,0.404,0.236,0.652,0.307
		c0.247,0.068,0.502,0.112,0.762,0.131c0.308,0.023,0.589,0.035,0.847,0.04c0.257,0.005,0.452-0.003,0.585-0.021l0.238-3.324
		L47.477,100.215z M47.038,95.579c-0.298-0.021-0.589-0.007-0.873,0.043c-0.284,0.049-0.539,0.144-0.765,0.281
		c-0.225,0.139-0.408,0.315-0.551,0.529c-0.141,0.215-0.223,0.475-0.245,0.782c-0.026,0.382,0.027,0.694,0.165,0.938
		c0.136,0.244,0.323,0.439,0.562,0.588c0.237,0.147,0.508,0.256,0.812,0.324s0.609,0.114,0.917,0.137l1.214,0.088l0.252-3.506
		c-0.064-0.023-0.155-0.043-0.276-0.063c-0.12-0.018-0.25-0.036-0.389-0.056c-0.14-0.019-0.282-0.036-0.432-0.052
		C47.28,95.599,47.15,95.587,47.038,95.579z"/>
	<path style="fill:#6D2335;" d="M39.7,103.636l-5.176-1.288l0.249-1.005l4.05,1.007l0.773-3.111l-3.709-0.923l0.25-1.006
		l3.709,0.924l0.842-3.383l-4.116-1.025l0.25-1.004l5.244,1.305L39.7,103.636z"/>
	<path style="fill:#6D2335;" d="M31.293,101.14c-0.357-0.066-0.731-0.169-1.118-0.309s-0.765-0.29-1.132-0.451
		c-0.394-0.173-0.775-0.387-1.147-0.643s-0.68-0.559-0.924-0.91c-0.242-0.352-0.389-0.753-0.44-1.204
		c-0.052-0.45,0.044-0.954,0.288-1.509c0.24-0.547,0.542-0.966,0.904-1.255c0.361-0.29,0.756-0.48,1.184-0.572
		c0.428-0.093,0.875-0.099,1.338-0.017c0.464,0.082,0.918,0.221,1.362,0.416c0.042,0.019,0.112,0.049,0.211,0.092
		s0.201,0.092,0.306,0.143c0.105,0.051,0.206,0.104,0.305,0.156c0.1,0.055,0.168,0.095,0.207,0.122l1.499-3.409l1.063,0.468
		L31.293,101.14z M29.423,99.445c0.223,0.099,0.438,0.188,0.646,0.269c0.209,0.082,0.381,0.133,0.516,0.15l1.634-3.717
		c-0.035-0.035-0.099-0.076-0.191-0.122c-0.092-0.046-0.188-0.093-0.289-0.142c-0.101-0.051-0.197-0.095-0.292-0.137
		c-0.094-0.041-0.162-0.071-0.205-0.09c-0.29-0.128-0.591-0.228-0.901-0.297c-0.311-0.07-0.613-0.084-0.908-0.04
		c-0.294,0.044-0.57,0.167-0.827,0.37c-0.258,0.203-0.477,0.51-0.657,0.92c-0.154,0.35-0.216,0.672-0.188,0.965
		c0.03,0.293,0.122,0.559,0.278,0.795c0.155,0.236,0.357,0.444,0.604,0.625C28.889,99.175,29.149,99.325,29.423,99.445z"/>
	<path style="fill:#6D2335;" d="M23.035,97.254L18.593,94.3l0.573-0.861l3.475,2.31l1.775-2.671l-3.184-2.115l0.573-0.863
		l3.184,2.117l1.93-2.904l-3.532-2.348l0.573-0.863l4.501,2.992L23.035,97.254z"/>
	<path style="fill:#6D2335;" d="M15.303,84.212l3.359,3.293l3.146-3.209l0.829,0.813l-6.861,6.998l-0.83-0.813l2.99-3.049
		l-3.359-3.293l-2.989,3.049l-0.829-0.814l6.86-6.997l0.83,0.813L15.303,84.212z"/>
	<path style="fill:#6D2335;" d="M12.554,81.786c-1.361,0.902-2.597,1.307-3.706,1.212c-1.108-0.093-2.017-0.673-2.723-1.739
		c-0.382-0.576-0.61-1.142-0.686-1.695c-0.076-0.555-0.021-1.092,0.166-1.613c0.187-0.521,0.494-1.019,0.925-1.494
		c0.43-0.475,0.963-0.924,1.602-1.346c1.361-0.902,2.599-1.305,3.71-1.207s2.022,0.684,2.734,1.758
		c0.376,0.568,0.601,1.128,0.674,1.678c0.073,0.551,0.017,1.086-0.17,1.607c-0.187,0.521-0.494,1.019-0.925,1.494
		C13.727,80.915,13.192,81.363,12.554,81.786z M11.874,80.759c0.451-0.299,0.851-0.627,1.195-0.984
		c0.346-0.357,0.61-0.731,0.793-1.122c0.185-0.39,0.271-0.792,0.261-1.204c-0.011-0.413-0.147-0.818-0.41-1.215
		c-0.479-0.724-1.13-1.109-1.951-1.158c-0.822-0.05-1.805,0.304-2.948,1.062c-0.443,0.294-0.84,0.622-1.189,0.981
		s-0.614,0.736-0.796,1.131c-0.181,0.395-0.266,0.798-0.256,1.211c0.011,0.412,0.149,0.822,0.418,1.227
		c0.474,0.716,1.121,1.096,1.939,1.142C9.749,81.873,10.73,81.517,11.874,80.759z"/>
	<path style="fill:#6D2335;" d="M3.582,60.402c-0.057-0.317-0.028-0.644,0.082-0.979s0.304-0.614,0.58-0.839
		c0.275-0.224,0.578-0.364,0.907-0.422c0.527-0.094,1.01,0.013,1.448,0.32c0.438,0.306,0.702,0.723,0.795,1.247
		c0.094,0.528-0.014,1.011-0.32,1.448s-0.724,0.704-1.251,0.797c-0.332,0.059-0.666,0.029-1-0.088
		c-0.334-0.116-0.611-0.313-0.829-0.59C3.776,61.021,3.638,60.723,3.582,60.402z"/>
</g>
</svg>
