<?xml version="1.0" encoding="utf-8"?>
<!-- Generator: Adobe Illustrator 22.0.1, SVG Export Plug-In . SVG Version: 6.00 Build 0)  -->
<svg version="1.1" id="Слой_1" xmlns="http://www.w3.org/2000/svg" xmlns:xlink="http://www.w3.org/1999/xlink" x="0px" y="0px"
	 viewBox="0 0 24.292 19.965" style="enable-background:new 0 0 24.292 19.965;" xml:space="preserve">
<g transform="translate(0,-952.36218)">
	<path style="fill:none;stroke:#E4B15C;stroke-linecap:round;stroke-linejoin:round;stroke-miterlimit:10;" d="M9.09,968.86
		c-2.982-1.143-5.103-4.048-5.103-7.449c0-4.41,3.536-7.953,7.915-7.953c4.366,0,7.905,3.543,7.905,7.953
		c0,3.411-2.13,6.314-5.113,7.449 M11.916,966.74c1.164,0,2.095,0.857,2.254,1.977c0.004,0.026,0.009,0.052,0.015,0.077
		c0.007,0.035,0.015,0.087,0.015,0.263c0,1.299-1.002,2.317-2.284,2.317c-1.306,0-2.3-1.017-2.3-2.317c0-0.175,0.003-0.244,0-0.232
		c0.006-0.031,0.011-0.062,0.015-0.093C9.792,967.59,10.729,966.74,11.916,966.74L11.916,966.74z"/>
</g>
</svg>
