<?xml version="1.0" encoding="utf-8"?>
<!-- Generator: Adobe Illustrator 22.0.1, SVG Export Plug-In . SVG Version: 6.00 Build 0)  -->
<svg version="1.1" id="Слой_1" xmlns="http://www.w3.org/2000/svg" xmlns:xlink="http://www.w3.org/1999/xlink" x="0px" y="0px"
	 viewBox="0 0 24.917 19.965" style="enable-background:new 0 0 24.917 19.965;" xml:space="preserve">
<g>
	<path style="fill:none;stroke:#E4B15C;stroke-linecap:round;stroke-linejoin:round;stroke-miterlimit:10;" d="M22.361,8.933
		c0.562,0.025,1.51,0.055,2.001,0.088c0.004,0,0.008,0,0.013,0 M24.362,12.486c-0.491,0.029-1.439,0.151-2.001,0.18 M21.32,5.753
		l-0.096,0.52l-0.52,0.101l-0.461-0.457l0.096-0.52l0.52-0.105L21.32,5.753z M18.724,3.789l0.558,0.331l0.029,0.529l-0.482,0.222
		L18.27,4.54l-0.029-0.529L18.724,3.789z M16.273,2.85l0.629,0.168l0.172,0.499l-0.403,0.344l-0.629-0.168L15.87,3.194L16.273,2.85z
		 M13.605,2.661l0.65-0.004l0.298,0.436l-0.298,0.436l-0.65,0.004l-0.298-0.436L13.605,2.661z M10.962,3.017l0.629-0.168
		l0.403,0.344l-0.172,0.499L11.193,3.86L10.79,3.517L10.962,3.017z M8.588,4.121L9.146,3.79l0.482,0.222L9.599,4.54L9.041,4.872
		L8.558,4.649L8.588,4.121z M7.01,5.3l0.52,0.105l0.096,0.52l-0.46,0.457l-0.52-0.101L6.55,5.761L7.01,5.3z M0.6,10.749
		c0-0.94,0.768-1.699,1.712-1.699s1.712,0.764,1.712,1.699c0,0.94-0.768,1.699-1.712,1.699S0.6,11.685,0.6,10.749z M5.528,12.666
		c-0.596-0.025-2.675-0.193-3.216-0.218 M2.312,9.05c0.541-0.029,2.603-0.155,3.203-0.176 M21.203,6.667
		c0.894,1.17,1.418,2.572,1.418,4.069c0.008,4.12-3.893,7.463-8.688,7.463s-8.697-3.344-8.697-7.451c0-1.502,0.52-2.899,1.418-4.074
		"/>
	<path style="fill:none;stroke:#E4B15C;stroke-linecap:round;stroke-linejoin:round;stroke-miterlimit:10;" d="M20.534,12.713
		c-2.081,0.059-4.818,0.046-7.205,0.046c-1.93,0-4.261-0.05-6.015-0.092 M7.313,8.933c1.749-0.042,4.085-0.201,6.015-0.201
		c2.391,0,5.149,0.042,7.225,0.101"/>
</g>
</svg>
