<?xml version="1.0" encoding="utf-8"?>
<!-- Generator: Adobe Illustrator 22.0.1, SVG Export Plug-In . SVG Version: 6.00 Build 0)  -->
<svg version="1.1" id="Слой_1" xmlns="http://www.w3.org/2000/svg" xmlns:xlink="http://www.w3.org/1999/xlink" x="0px" y="0px"
	 viewBox="0 0 24.292 19.965" style="enable-background:new 0 0 24.292 19.965;" xml:space="preserve">
<path style="fill:none;stroke:#E4B15C;stroke-linecap:round;stroke-linejoin:round;stroke-miterlimit:10;" d="M9.04,4.235
	c0-1.403-1.04-2.203-2.203-2.203s-2.203,0.8-2.203,2.203c0,0.633,0.303,1.416,0.953,2.626C5.664,7.004,5.744,7.15,5.853,7.348
	C6.74,8.956,7.061,9.61,7.134,10.224 M7.057,17.8c2.086,0,3.777-1.691,3.777-3.777s-1.691-3.777-3.777-3.777
	S3.28,11.937,3.28,14.023S4.971,17.8,7.057,17.8z"/>
<path style="fill:none;stroke:#E4B15C;stroke-linecap:round;stroke-linejoin:round;stroke-miterlimit:10;" d="M19.111,4.235
	c0-1.403-1.04-2.203-2.203-2.203s-2.203,0.8-2.203,2.203c0,0.633,0.303,1.416,0.953,2.626c0.077,0.143,0.157,0.289,0.266,0.488
	c0.887,1.608,1.208,2.262,1.281,2.876 M17.128,17.8c2.086,0,3.777-1.691,3.777-3.777s-1.691-3.777-3.777-3.777
	s-3.777,1.691-3.777,3.777S15.042,17.8,17.128,17.8z"/>
</svg>
