<?xml version="1.0" encoding="utf-8"?>
<!-- Generator: Adobe Illustrator 22.0.1, SVG Export Plug-In . SVG Version: 6.00 Build 0)  -->
<svg version="1.1" id="Слой_1" xmlns="http://www.w3.org/2000/svg" xmlns:xlink="http://www.w3.org/1999/xlink" x="0px" y="0px"
	 viewBox="0 0 24.292 19.965" style="enable-background:new 0 0 24.292 19.965;" xml:space="preserve">
<g>
	<path style="fill:none;stroke:#E4B15C;stroke-linecap:round;stroke-linejoin:round;stroke-miterlimit:10;" d="M12.714,11.087
		c0,0.417-0.338,0.755-0.755,0.755s-0.755-0.338-0.755-0.755s0.338-0.755,0.755-0.755C12.375,10.332,12.714,10.67,12.714,11.087z
		 M4.488,0.5c1.527,0.558,3.04,8.321,7.471,8.321S17.902,1.058,19.43,0.5"/>
</g>
<path style="fill:none;stroke:#E4B15C;stroke-linecap:round;stroke-linejoin:round;stroke-miterlimit:10;" d="M15.809,14.407
	c-0.05-0.175-0.124-0.346-0.225-0.509c-0.452-0.715-1.31-1.075-2.138-0.894c-0.712,0.155-1.277,0.704-1.487,1.39
	c-0.21-0.685-0.775-1.235-1.487-1.39c-0.828-0.181-1.686,0.179-2.136,0.894c-0.103,0.163-0.177,0.333-0.227,0.509
	c-0.088,0.382-0.082,0.783-0.002,1.169c0.064,0.262,0.169,0.515,0.302,0.751c0.441,0.783,1.163,1.368,1.845,1.932
	c0.002,0.002,0.003,0.003,0.005,0.003c0.294,0.243,0.603,0.466,0.922,0.675c0.262,0.171,0.521,0.339,0.778,0.517
	c0.255-0.177,0.517-0.347,0.778-0.517c0.319-0.208,0.628-0.433,0.922-0.675c0.002-0.002,0.003-0.003,0.005-0.003
	c0.683-0.562,1.404-1.149,1.845-1.932c0.133-0.236,0.236-0.49,0.302-0.751C15.889,15.188,15.896,14.788,15.809,14.407z"/>
</svg>
