<?xml version="1.0" encoding="utf-8"?>
<!-- Generator: Adobe Illustrator 22.0.1, SVG Export Plug-In . SVG Version: 6.00 Build 0)  -->
<svg version="1.1" id="Слой_1" xmlns="http://www.w3.org/2000/svg" xmlns:xlink="http://www.w3.org/1999/xlink" x="0px" y="0px"
	 viewBox="0 0 24.292 19.965" style="enable-background:new 0 0 24.292 19.965;" xml:space="preserve">
<path style="fill:none;stroke:#E4B15C;stroke-linecap:round;stroke-linejoin:round;stroke-miterlimit:10;" d="M10.29,12.023
	c0-0.883-0.654-1.386-1.386-1.386s-1.386,0.503-1.386,1.386c0,0.398,0.19,0.89,0.6,1.651c0.048,0.09,0.099,0.182,0.167,0.307
	c0.558,1.012,0.76,1.423,0.805,1.809 M9.093,19.46c1.008,0,1.825-0.817,1.825-1.825c0-1.008-0.817-1.825-1.825-1.825
	s-1.825,0.817-1.825,1.825C7.268,18.643,8.085,19.46,9.093,19.46z"/>
<path style="fill:none;stroke:#E4B15C;stroke-linecap:round;stroke-linejoin:round;stroke-miterlimit:10;" d="M16.642,12.023
	c0-0.883-0.654-1.386-1.386-1.386c-0.732,0-1.386,0.503-1.386,1.386c0,0.398,0.19,0.89,0.6,1.651
	c0.048,0.09,0.099,0.182,0.167,0.307c0.558,1.012,0.76,1.423,0.805,1.809 M15.445,19.46c1.008,0,1.825-0.817,1.825-1.825
	c0-1.008-0.817-1.825-1.825-1.825s-1.825,0.817-1.825,1.825C13.62,18.643,14.438,19.46,15.445,19.46z"/>
<g>
	<path style="fill:none;stroke:#E4B15C;stroke-linecap:round;stroke-linejoin:round;stroke-miterlimit:10;" d="M5.088,0.548
		c1.429,0.522,2.845,5.915,6.99,5.915s5.561-5.393,6.99-5.915"/>
</g>
<circle style="fill:none;stroke:#E4B15C;stroke-linecap:round;stroke-linejoin:round;stroke-miterlimit:10;" cx="12.169" cy="7.714" r="1.258"/>
</svg>
