<?xml version="1.0" encoding="utf-8"?>
<!-- Generator: Adobe Illustrator 22.0.1, SVG Export Plug-In . SVG Version: 6.00 Build 0)  -->
<svg version="1.1" id="Слой_1" xmlns="http://www.w3.org/2000/svg" xmlns:xlink="http://www.w3.org/1999/xlink" x="0px" y="0px"
	 viewBox="0 0 10.024 5.846" style="enable-background:new 0 0 10.024 5.846;" xml:space="preserve">
<g>
	<path style="fill:#FFFFFF;" d="M10.024,0.834c0,0.087-0.033,0.164-0.1,0.231L5.243,5.746c-0.066,0.067-0.144,0.101-0.23,0.101
		s-0.164-0.033-0.23-0.101L0.101,1.065C0.033,0.998,0,0.921,0,0.834S0.033,0.67,0.101,0.603l0.502-0.502
		C0.669,0.034,0.747,0,0.833,0c0.087,0,0.164,0.034,0.231,0.101l3.947,3.948l3.947-3.948C9.026,0.034,9.104,0,9.19,0
		c0.088,0,0.164,0.034,0.232,0.101l0.502,0.502C9.991,0.67,10.024,0.747,10.024,0.834z"/>
</g>
</svg>
