<?xml version="1.0" encoding="utf-8"?>
<!-- Generator: Adobe Illustrator 22.0.1, SVG Export Plug-In . SVG Version: 6.00 Build 0)  -->
<svg version="1.1" id="Слой_1" xmlns="http://www.w3.org/2000/svg" xmlns:xlink="http://www.w3.org/1999/xlink" x="0px" y="0px"
	 viewBox="0 0 10.024 5.846" style="enable-background:new 0 0 10.024 5.846;" xml:space="preserve">
<g>
	<path style="fill:#28262C;" d="M9.924,5.243L9.422,5.746C9.354,5.813,9.278,5.846,9.19,5.846c-0.086,0-0.164-0.034-0.23-0.101
		L5.012,1.798L1.065,5.746C0.998,5.813,0.921,5.846,0.833,5.846c-0.087,0-0.164-0.034-0.231-0.101L0.101,5.243
		C0.033,5.176,0,5.099,0,5.012s0.033-0.164,0.101-0.231l4.681-4.681C4.848,0.033,4.925,0,5.012,0s0.164,0.033,0.23,0.101
		l4.682,4.681c0.066,0.067,0.1,0.144,0.1,0.231S9.991,5.176,9.924,5.243z"/>
</g>
</svg>
