<?xml version="1.0" encoding="utf-8"?>
<!-- Generator: Adobe Illustrator 22.0.1, SVG Export Plug-In . SVG Version: 6.00 Build 0)  -->
<svg version="1.1" id="Слой_1" xmlns="http://www.w3.org/2000/svg" xmlns:xlink="http://www.w3.org/1999/xlink" x="0px" y="0px"
	 viewBox="0 0 51.617 40.653" style="enable-background:new 0 0 51.617 40.653;" xml:space="preserve">
<g transform="translate(0,-952.36218)">
	<path style="fill:none;stroke:#E4B15C;stroke-width:1.5;stroke-linecap:round;stroke-linejoin:round;stroke-miterlimit:10;" d="
		M30.826,965.291h12.189l7.852,7.855v3.18 M37.383,986.135h-6.558 M50.866,981.23v4.905h-3.832 M10.479,986.135H6.802v-12.683
		 M21.089,959.16h9.614v26.974H20.126 M36.784,969.582h4.661l5.132,5.133v0.895h-9.794V969.582z M15.382,982.456
		c2.722,0,4.903,2.182,4.903,4.905s-2.181,4.905-4.903,4.905s-4.903-2.182-4.903-4.905C10.479,984.638,12.66,982.456,15.382,982.456
		z M42.286,982.456c2.722,0,4.903,2.182,4.903,4.905s-2.181,4.905-4.903,4.905c-2.722,0-4.903-2.182-4.903-4.905
		C37.383,984.638,39.564,982.456,42.286,982.456z"/>
</g>
<rect x="0.75" y="0.75" style="fill:none;stroke:#E4B15C;stroke-width:1.5;stroke-linecap:round;stroke-linejoin:round;stroke-miterlimit:10;" width="18.233" height="18.233"/>
<polyline style="fill:none;stroke:#E4B15C;stroke-width:1.5;stroke-linecap:round;stroke-linejoin:round;stroke-miterlimit:10;" points="
	13.543,0.75 13.543,9.077 10.173,6.032 6.802,9.077 6.802,0.75 "/>
</svg>
