<?xml version="1.0" encoding="utf-8"?>
<!-- Generator: Adobe Illustrator 22.0.1, SVG Export Plug-In . SVG Version: 6.00 Build 0)  -->
<svg version="1.1" id="Слой_1" xmlns="http://www.w3.org/2000/svg" xmlns:xlink="http://www.w3.org/1999/xlink" x="0px" y="0px"
	 viewBox="0 0 51.7 42.093" style="enable-background:new 0 0 51.7 42.093;" xml:space="preserve">
<g transform="translate(0,-952.36218)">
	<path style="fill:none;stroke:#E4B15C;stroke-width:1.5;stroke-linecap:round;stroke-linejoin:round;stroke-miterlimit:10;" d="
		M31.33,971.379h19.62v9.472H31.33c-0.398,0-0.677-0.278-0.677-0.677v-8.119C30.654,971.657,30.932,971.378,31.33,971.379z"/>
	
		<circle style="fill:none;stroke:#E4B15C;stroke-width:1.5;stroke-linecap:round;stroke-linejoin:round;stroke-miterlimit:10;" cx="38.096" cy="976.115" r="2.706"/>
	<path style="fill:none;stroke:#E4B15C;stroke-width:1.5;stroke-linecap:round;stroke-linejoin:round;stroke-miterlimit:10;" d="
		M3.456,958.525c-1.523,0-2.706-1.184-2.706-2.706s1.184-2.706,2.706-2.706h39.24v5.412 M50.95,980.715v10.96
		c0,1.148-0.882,2.03-2.03,2.03H2.915c-1.148,0-2.03-0.882-2.03-2.03v-35.041c0.86,1.89,1.722,1.89,2.706,1.89
		c15.239-0.014,32.231,0,45.329,0c1.148,0,2.03,0.882,2.03,2.03v19.823"/>
</g>
<g>
	<g>
		
			<line style="fill:none;stroke:#E4B15C;stroke-width:1.5;stroke-linecap:round;stroke-linejoin:round;" x1="4.429" y1="11.24" x2="6.429" y2="11.24"/>
		
			<line style="fill:none;stroke:#E4B15C;stroke-width:1.5;stroke-linecap:round;stroke-linejoin:round;stroke-dasharray:4.2855,4.2855;" x1="10.715" y1="11.24" x2="42.856" y2="11.24"/>
		
			<line style="fill:none;stroke:#E4B15C;stroke-width:1.5;stroke-linecap:round;stroke-linejoin:round;" x1="44.999" y1="11.24" x2="46.999" y2="11.24"/>
	</g>
</g>
</svg>
