<?xml version="1.0" encoding="utf-8"?>
<!-- Generator: Adobe Illustrator 22.0.1, SVG Export Plug-In . SVG Version: 6.00 Build 0)  -->
<svg version="1.1" id="Слой_1" xmlns="http://www.w3.org/2000/svg" xmlns:xlink="http://www.w3.org/1999/xlink" x="0px" y="0px"
	 viewBox="0 0 51.375 30.813" style="enable-background:new 0 0 51.375 30.813;" xml:space="preserve">
<g>
	<path style="fill:none;stroke:#E4B15C;stroke-width:1.5;stroke-linecap:round;stroke-linejoin:round;stroke-miterlimit:10;" d="
		M10.952,10.784H1.969c-0.946,0-1.523,0.998-1.051,1.839l1.261,2.206c0.21,0.368,0.21,0.841,0,1.208l-1.261,2.206
		c-0.473,0.841,0.105,1.839,1.051,1.839h9.036"/>
	<path style="fill:none;stroke:#E4B15C;stroke-width:1.5;stroke-linecap:round;stroke-linejoin:round;stroke-miterlimit:10;" d="
		M40.318,20.187h9.036c0.946,0,1.523-1.051,1.051-1.839l-1.208-2.259c-0.21-0.368-0.21-0.841,0-1.208l1.261-2.206
		c0.473-0.841-0.105-1.839-1.051-1.839h-9.088"/>
	<path style="fill:none;stroke:#E4B15C;stroke-width:1.5;stroke-linecap:round;stroke-linejoin:round;stroke-miterlimit:10;" d="
		M39.74,14.146l-1.366-1.051c-0.578-0.473-0.788-1.261-0.525-1.944l0.63-1.576c0.42-0.998-0.21-2.154-1.313-2.259l-1.681-0.263
		c-0.735-0.105-1.313-0.683-1.418-1.418l-0.21-1.681c-0.158-1.103-1.261-1.734-2.259-1.313l-1.576,0.63
		c-0.683,0.263-1.471,0.053-1.944-0.525L27.027,1.38c-0.683-0.841-1.944-0.841-2.627,0L23.35,2.746
		c-0.473,0.578-1.261,0.788-1.944,0.525l-1.576-0.63c-0.998-0.42-2.154,0.21-2.259,1.313l-0.315,1.681
		c-0.105,0.735-0.683,1.313-1.418,1.418l-1.681,0.21c-1.103,0.158-1.734,1.261-1.313,2.259l0.63,1.576
		c0.263,0.683,0.053,1.471-0.525,1.944l-1.366,1.051c-0.841,0.683-0.841,1.944,0,2.627l1.366,1.051
		c0.578,0.473,0.788,1.261,0.525,1.944l-0.63,1.576c-0.42,0.998,0.21,2.154,1.313,2.259l1.681,0.21
		c0.735,0.105,1.313,0.683,1.418,1.418l0.21,1.681c0.158,1.103,1.261,1.734,2.259,1.313l1.576-0.63
		c0.683-0.263,1.471-0.053,1.944,0.525l1.051,1.366c0.683,0.841,1.944,0.841,2.627,0l1.051-1.366
		c0.473-0.578,1.261-0.788,1.944-0.525l1.576,0.63c0.998,0.42,2.154-0.21,2.259-1.313l0.21-1.681
		c0.105-0.735,0.683-1.313,1.418-1.418l1.681-0.21c1.103-0.158,1.734-1.261,1.313-2.259l-0.63-1.576
		c-0.263-0.683-0.053-1.471,0.525-1.944l1.366-1.051C40.581,16.09,40.581,14.829,39.74,14.146z M25.661,23.759
		c-4.57,0-8.3-3.73-8.3-8.3s3.73-8.3,8.3-8.3s8.3,3.73,8.3,8.3S30.232,23.759,25.661,23.759z"/>
	<path style="fill:none;stroke:#E4B15C;stroke-width:1.5;stroke-linecap:round;stroke-linejoin:round;stroke-miterlimit:10;" d="
		M27.815,13.673l-3.204,3.257l-1.103-1.103"/>
</g>
</svg>
