<?xml version="1.0" encoding="utf-8"?>
<!-- Generator: Adobe Illustrator 22.0.1, SVG Export Plug-In . SVG Version: 6.00 Build 0)  -->
<svg version="1.1" id="Слой_1" xmlns="http://www.w3.org/2000/svg" xmlns:xlink="http://www.w3.org/1999/xlink" x="0px" y="0px"
	 viewBox="0 0 55 55" style="enable-background:new 0 0 55 55;" xml:space="preserve">
<circle style="fill:none;stroke:#611F2F;stroke-width:3;stroke-miterlimit:10;" cx="27.5" cy="27.5" r="26"/>
<g>
	<path style="fill:#FFFFFF;" d="M36.211,23.906c0.025,0.703,0.039,1.901,0.039,3.594c0,1.693-0.014,2.891-0.039,3.594
		c-0.078,1.589-0.554,2.819-1.426,3.691c-0.873,0.872-2.104,1.334-3.691,1.387c-0.703,0.052-1.901,0.078-3.594,0.078
		c-1.693,0-2.891-0.026-3.594-0.078c-1.589-0.078-2.813-0.547-3.672-1.406c-0.339-0.313-0.612-0.677-0.82-1.094
		c-0.209-0.416-0.358-0.82-0.449-1.211c-0.092-0.391-0.137-0.846-0.137-1.367c-0.053-0.703-0.078-1.9-0.078-3.594
		c0-1.692,0.025-2.903,0.078-3.633c0.078-1.563,0.547-2.773,1.406-3.633c0.859-0.885,2.083-1.367,3.672-1.445
		c0.703-0.025,1.9-0.039,3.594-0.039c1.692,0,2.891,0.014,3.594,0.039c1.588,0.078,2.818,0.554,3.691,1.426
		C35.657,21.088,36.133,22.318,36.211,23.906z M34.336,32.656c0.078-0.208,0.143-0.475,0.195-0.801
		c0.052-0.325,0.091-0.716,0.117-1.172c0.025-0.455,0.039-0.826,0.039-1.113c0-0.286,0-0.689,0-1.211c0-0.521,0-0.813,0-0.879
		c0-0.064,0-0.352,0-0.859s0-0.904,0-1.191c0-0.286-0.014-0.657-0.039-1.113c-0.026-0.455-0.065-0.846-0.117-1.172
		c-0.053-0.325-0.117-0.592-0.195-0.801c-0.313-0.807-0.873-1.367-1.68-1.68c-0.209-0.078-0.476-0.143-0.801-0.195
		c-0.326-0.052-0.717-0.091-1.172-0.117c-0.456-0.025-0.82-0.039-1.094-0.039s-0.678,0-1.211,0c-0.534,0-0.827,0-0.879,0
		c-0.053,0-0.339,0-0.859,0c-0.521,0-0.925,0-1.211,0c-0.287,0-0.658,0.014-1.113,0.039c-0.456,0.026-0.847,0.065-1.172,0.117
		c-0.326,0.053-0.593,0.117-0.801,0.195c-0.808,0.313-1.367,0.873-1.68,1.68c-0.078,0.209-0.144,0.476-0.195,0.801
		c-0.053,0.326-0.092,0.717-0.117,1.172c-0.026,0.456-0.039,0.82-0.039,1.094s0,0.678,0,1.211c0,0.534,0,0.827,0,0.879
		c0,0.104,0,0.346,0,0.723c0,0.378,0,0.69,0,0.938c0,0.248,0.006,0.566,0.02,0.957c0.013,0.391,0.032,0.723,0.059,0.996
		c0.025,0.273,0.064,0.554,0.117,0.84c0.052,0.287,0.104,0.521,0.156,0.703c0.338,0.808,0.898,1.367,1.68,1.68
		c0.208,0.078,0.475,0.144,0.801,0.195c0.325,0.053,0.716,0.092,1.172,0.117c0.455,0.026,0.82,0.039,1.094,0.039s0.677,0,1.211,0
		c0.533,0,0.826,0,0.879,0c0.078,0,0.371,0,0.879,0s0.904,0,1.191,0c0.286,0,0.657-0.013,1.113-0.039
		c0.455-0.025,0.846-0.064,1.172-0.117c0.325-0.052,0.592-0.117,0.801-0.195C33.463,33.998,34.023,33.438,34.336,32.656z
		 M24.316,24.316c0.872-0.872,1.934-1.309,3.184-1.309s2.311,0.437,3.184,1.309c0.872,0.873,1.309,1.934,1.309,3.184
		s-0.437,2.312-1.309,3.184c-0.873,0.873-1.934,1.309-3.184,1.309s-2.312-0.436-3.184-1.309c-0.873-0.872-1.309-1.934-1.309-3.184
		S23.443,25.189,24.316,24.316z M25.43,29.57c0.572,0.573,1.263,0.859,2.07,0.859c0.807,0,1.497-0.286,2.07-0.859
		c0.572-0.572,0.859-1.263,0.859-2.07c0-0.807-0.287-1.497-0.859-2.07c-0.573-0.572-1.264-0.859-2.07-0.859
		c-0.808,0-1.498,0.287-2.07,0.859c-0.573,0.573-0.859,1.264-0.859,2.07C24.57,28.308,24.856,28.998,25.43,29.57z M32.91,22.09
		c0.195,0.195,0.293,0.437,0.293,0.723c0,0.287-0.098,0.534-0.293,0.742c-0.195,0.209-0.437,0.313-0.723,0.313
		c-0.287,0-0.534-0.104-0.742-0.313c-0.209-0.208-0.313-0.455-0.313-0.742c0-0.286,0.104-0.527,0.313-0.723
		c0.208-0.195,0.455-0.293,0.742-0.293C32.474,21.797,32.715,21.895,32.91,22.09z"/>
</g>
</svg>
