<?xml version="1.0" encoding="utf-8"?>
<!-- Generator: Adobe Illustrator 22.0.1, SVG Export Plug-In . SVG Version: 6.00 Build 0)  -->
<svg version="1.1" id="Слой_1" xmlns="http://www.w3.org/2000/svg" xmlns:xlink="http://www.w3.org/1999/xlink" x="0px" y="0px"
	 viewBox="0 0 55 55" style="enable-background:new 0 0 55 55;" xml:space="preserve">
<circle style="fill:none;stroke:#611F2F;stroke-width:3;stroke-miterlimit:10;" cx="27.5" cy="27.5" r="26"/>
<g>
	<path style="fill:#FFFFFF;" d="M36.199,23.117c0.066,0.266,0.127,0.598,0.182,0.996s0.094,0.792,0.117,1.179
		c0.021,0.388,0.037,0.747,0.049,1.079s0.018,0.609,0.018,0.83V27.5c0,1.992-0.123,3.464-0.365,4.416
		c-0.111,0.376-0.311,0.708-0.598,0.996c-0.289,0.288-0.631,0.487-1.029,0.598c-0.422,0.111-1.219,0.194-2.391,0.249
		c-1.174,0.056-2.248,0.094-3.221,0.116H27.5c-3.785,0-6.143-0.122-7.073-0.365c-0.863-0.243-1.406-0.774-1.627-1.594
		c-0.111-0.42-0.194-1.001-0.249-1.743c-0.056-0.741-0.094-1.367-0.116-1.876V27.5c0-1.97,0.122-3.431,0.365-4.383
		c0.11-0.398,0.31-0.741,0.598-1.029c0.288-0.288,0.631-0.487,1.029-0.598c0.42-0.11,1.217-0.193,2.391-0.249
		c1.172-0.055,2.246-0.094,3.221-0.116H27.5c3.785,0,6.143,0.122,7.072,0.365c0.398,0.111,0.74,0.31,1.029,0.598
		C35.889,22.376,36.088,22.719,36.199,23.117z M25.641,30.223l4.748-2.723l-4.748-2.689V30.223z"/>
</g>
</svg>
